<?xml version="1.0" encoding="UTF-8"?>
<svg xmlns="http://www.w3.org/2000/svg" xmlns:xlink="http://www.w3.org/1999/xlink" width="209px" height="128px" viewBox="0 0 208 128" version="1.1">
<g id="surface1">
<path style=" stroke:none;fill-rule:nonzero;fill:rgb(60%,60%,60%);fill-opacity:1;" d="M 25.738281 56.6875 C 25.746094 56.910156 25.746094 56.910156 25.753906 57.140625 C 25.855469 60.570312 25.855469 60.570312 26.277344 63.96875 C 26.339844 64.324219 26.339844 64.324219 26.402344 64.6875 C 26.503906 65.214844 26.609375 65.742188 26.714844 66.269531 C 26.375 67.78125 25.082031 68.546875 23.921875 69.484375 C 16.632812 75.71875 9.972656 85.203125 9.101562 95.085938 C 8.773438 100.652344 9.507812 106.117188 13.253906 110.492188 C 13.839844 111.132812 14.449219 111.730469 15.078125 112.328125 C 15.28125 112.519531 15.484375 112.710938 15.695312 112.910156 C 20.425781 117.03125 27.167969 118.597656 33.28125 118.855469 C 33.570312 118.871094 33.859375 118.882812 34.160156 118.898438 C 48.609375 119.246094 62.894531 113.085938 74.101562 104.230469 C 74.351562 104.03125 74.601562 103.832031 74.863281 103.625 C 80.773438 98.777344 88.261719 91.605469 90.21875 83.851562 C 90.09375 83.058594 90.09375 83.058594 89.652344 82.449219 C 88.566406 80.679688 88.480469 79.128906 88.660156 77.0625 C 89.230469 74.78125 90.582031 72.609375 92.558594 71.3125 C 94.996094 70.085938 97.175781 69.589844 99.871094 70.300781 C 102.121094 71.058594 104.019531 72.707031 105.105469 74.824219 C 106.050781 77.105469 106.25 79.5 105.398438 81.84375 C 104.390625 84.015625 103.058594 85.667969 100.878906 86.726562 C 100.460938 86.8125 100.039062 86.882812 99.613281 86.9375 C 99.054688 87.011719 99.054688 87.011719 98.539062 87.25 C 98.28125 87.722656 98.28125 87.722656 98.15625 88.304688 C 97.78125 89.585938 97.246094 90.679688 96.589844 91.835938 C 96.421875 92.140625 96.421875 92.140625 96.246094 92.449219 C 93.992188 96.410156 91.261719 99.957031 88.203125 103.324219 C 87.816406 103.75 87.4375 104.175781 87.0625 104.609375 C 84.640625 107.390625 81.90625 109.742188 78.984375 111.972656 C 78.535156 112.3125 78.09375 112.660156 77.652344 113.007812 C 64.152344 123.429688 46.011719 129.71875 28.925781 127.675781 C 21.925781 126.726562 15.363281 124.472656 9.878906 119.902344 C 9.652344 119.710938 9.421875 119.519531 9.183594 119.324219 C 4.003906 114.828125 0.738281 108.171875 0 101.355469 C -0.574219 88.871094 4.117188 77.40625 12.359375 68.113281 C 15.054688 65.152344 17.863281 62.234375 21.058594 59.820312 C 21.417969 59.542969 21.777344 59.265625 22.136719 58.984375 C 22.519531 58.691406 22.902344 58.398438 23.285156 58.105469 C 23.46875 57.964844 23.652344 57.824219 23.839844 57.679688 C 24.011719 57.550781 24.183594 57.421875 24.359375 57.289062 C 24.511719 57.171875 24.667969 57.054688 24.824219 56.9375 C 25.21875 56.6875 25.21875 56.6875 25.738281 56.6875 Z M 25.738281 56.6875 "/>
<path style=" stroke:none;fill-rule:nonzero;fill:rgb(60%,60%,60%);fill-opacity:1;" d="M 85.539062 5.746094 C 86.804688 6.734375 88.003906 7.789062 89.179688 8.882812 C 89.378906 9.066406 89.582031 9.253906 89.785156 9.445312 C 99.113281 18.480469 104.289062 32.453125 105.558594 45.191406 C 105.558594 45.535156 105.558594 45.882812 105.558594 46.238281 C 104.390625 46.082031 103.496094 45.59375 102.488281 45.011719 C 101.417969 44.40625 100.375 43.867188 99.207031 43.480469 C 99.019531 43.417969 98.832031 43.359375 98.640625 43.292969 C 98.277344 43.179688 97.914062 43.074219 97.550781 42.976562 C 96.835938 42.75 96.3125 42.515625 95.933594 41.847656 C 95.71875 41.226562 95.5625 40.609375 95.421875 39.96875 C 95.363281 39.738281 95.308594 39.507812 95.25 39.273438 C 95.132812 38.78125 95.015625 38.289062 94.902344 37.796875 C 94.152344 34.546875 93.144531 31.511719 91.78125 28.472656 C 91.65625 28.191406 91.65625 28.191406 91.527344 27.90625 C 89.839844 24.207031 87.636719 20.871094 85.019531 17.761719 C 84.867188 17.570312 84.714844 17.378906 84.558594 17.183594 C 81.34375 13.304688 76.878906 10.605469 72.019531 9.402344 C 71.824219 9.355469 71.628906 9.304688 71.425781 9.253906 C 65.78125 8.375 60.558594 10.035156 55.949219 13.289062 C 55.492188 13.640625 55.042969 14 54.601562 14.367188 C 54.367188 14.558594 54.132812 14.753906 53.890625 14.949219 C 44.160156 23.386719 40.234375 37.613281 39.316406 50.007812 C 38.554688 62.753906 40.375 78.472656 48.6875 88.761719 C 49.140625 89.339844 49.140625 89.339844 49.140625 89.859375 C 49.378906 89.824219 49.378906 89.824219 49.625 89.785156 C 52.121094 89.457031 53.9375 89.839844 56.066406 91.214844 C 58.117188 92.804688 59.289062 95.070312 59.636719 97.632812 C 59.753906 100.230469 58.863281 102.507812 57.210938 104.488281 C 55.464844 106.210938 53.429688 107.042969 51.011719 107.128906 C 48.382812 107.042969 46.15625 106.078125 44.328125 104.164062 C 42.917969 102.375 42.316406 100.898438 42.429688 98.621094 C 42.558594 96.027344 42.011719 94.667969 40.367188 92.644531 C 39.296875 91.238281 38.515625 89.597656 37.699219 88.03125 C 37.59375 87.832031 37.488281 87.632812 37.382812 87.425781 C 28.753906 70.691406 27.984375 49.792969 33.496094 31.960938 C 35.824219 24.683594 39.199219 17.816406 44.199219 12.015625 C 44.382812 11.800781 44.566406 11.582031 44.757812 11.359375 C 55.246094 -0.714844 72.265625 -4.019531 85.539062 5.746094 Z M 85.539062 5.746094 "/>
<path style=" stroke:none;fill-rule:nonzero;fill:rgb(53.72549%,85.098039%,42.745098%);fill-opacity:1;" d="M 204.960938 71.753906 C 206.441406 72.957031 207.835938 74.863281 208.0625 76.804688 C 208.214844 79.386719 208.257812 81.679688 206.699219 83.851562 C 206.550781 84.089844 206.398438 84.328125 206.246094 84.570312 C 205 85.824219 203.492188 86.84375 201.761719 87.25 C 201.417969 87.25 201.074219 87.25 200.71875 87.25 C 200.65625 87.433594 200.597656 87.613281 200.53125 87.804688 C 199.035156 91.195312 195.519531 94.632812 192.660156 96.914062 C 192.453125 97.078125 192.453125 97.078125 192.246094 97.25 C 182.71875 104.871094 170.886719 108.929688 158.859375 110.238281 C 158.640625 110.261719 158.417969 110.285156 158.191406 110.3125 C 155.683594 110.558594 153.171875 110.5625 150.652344 110.5625 C 150.417969 110.5625 150.183594 110.5625 149.941406 110.5625 C 145.933594 110.558594 142.023438 110.359375 138.058594 109.714844 C 137.792969 109.671875 137.523438 109.628906 137.246094 109.582031 C 126.347656 107.75 114.90625 103.464844 106.859375 95.609375 C 106.71875 95.476562 106.578125 95.34375 106.433594 95.210938 C 105.597656 94.414062 105.105469 93.753906 104.953125 92.589844 C 104.929688 90.914062 105.027344 89.882812 106.078125 88.554688 C 107.375 87.519531 108.433594 87.339844 110.078125 87.414062 C 111.691406 87.640625 112.601562 88.5625 113.75 89.632812 C 121.371094 96.660156 132.410156 99.933594 142.480469 101.09375 C 142.683594 101.117188 142.886719 101.144531 143.09375 101.167969 C 145.449219 101.421875 147.816406 101.417969 150.183594 101.421875 C 150.40625 101.421875 150.632812 101.421875 150.863281 101.421875 C 154.617188 101.417969 158.277344 101.226562 161.980469 100.570312 C 162.222656 100.53125 162.464844 100.488281 162.71875 100.445312 C 171.847656 98.804688 181.757812 95.242188 188.371094 88.425781 C 188.585938 88.207031 188.800781 87.992188 189.019531 87.769531 C 189.191406 87.769531 189.363281 87.769531 189.539062 87.769531 C 189.605469 87.621094 189.675781 87.46875 189.742188 87.3125 C 190.191406 86.480469 190.8125 85.851562 191.449219 85.160156 C 191.878906 84.636719 192.1875 84.234375 192.398438 83.59375 C 192.246094 83.050781 192.246094 83.050781 191.929688 82.546875 C 190.808594 80.582031 190.796875 78.269531 191.25 76.070312 C 192.050781 73.773438 193.703125 71.894531 195.84375 70.777344 C 198.933594 69.351562 202.1875 69.851562 204.960938 71.753906 Z M 204.960938 71.753906 "/>
<path style=" stroke:none;fill-rule:nonzero;fill:rgb(60%,60%,60%);fill-opacity:1;" d="M 58.761719 41.273438 C 59.007812 41.46875 59.253906 41.660156 59.507812 41.859375 C 60.796875 42.585938 62.015625 42.253906 63.441406 42.058594 C 80.78125 39.890625 98.902344 47.050781 112.46875 57.527344 C 113.925781 58.667969 115.324219 59.859375 116.679688 61.117188 C 117.210938 61.605469 117.753906 62.078125 118.300781 62.546875 C 120.523438 64.5 122.453125 66.640625 124.28125 68.964844 C 124.511719 69.246094 124.738281 69.527344 124.96875 69.8125 C 129.835938 75.824219 133.5 82.84375 135.183594 90.417969 C 135.238281 90.664062 135.292969 90.910156 135.351562 91.167969 C 135.664062 92.675781 135.773438 94.066406 135.71875 95.609375 C 133.679688 95.523438 131.863281 95.039062 129.945312 94.375 C 129.011719 94.035156 129.011719 94.035156 128.21875 93.886719 C 127.488281 93.699219 127.144531 93.546875 126.621094 92.996094 C 126.304688 92.125 126.082031 91.273438 125.878906 90.375 C 124.308594 83.753906 119.992188 77.625 115.457031 72.6875 C 114.976562 72.160156 114.515625 71.617188 114.058594 71.070312 C 103.878906 59.417969 86.910156 51.984375 71.761719 50.9375 C 68.894531 50.804688 66.035156 50.90625 63.179688 51.199219 C 63.152344 51.433594 63.121094 51.667969 63.09375 51.910156 C 62.730469 53.707031 61.46875 55.238281 60.046875 56.351562 C 57.84375 57.808594 55.363281 58.15625 52.78125 57.730469 C 50.382812 56.957031 48.425781 55.539062 47.238281 53.289062 C 46.144531 50.832031 45.941406 48.660156 46.789062 46.101562 C 47.734375 43.824219 49.171875 42.273438 51.378906 41.207031 C 53.917969 40.171875 56.226562 40.203125 58.761719 41.273438 Z M 58.761719 41.273438 "/>
<path style=" stroke:none;fill-rule:nonzero;fill:rgb(53.72549%,85.098039%,42.745098%);fill-opacity:1;" d="M 148.28125 34.203125 C 165.09375 33.796875 182.558594 38.347656 195 50.15625 C 195.195312 50.335938 195.390625 50.519531 195.589844 50.707031 C 198.09375 53.121094 202.070312 57.28125 202.199219 60.996094 C 202.054688 62.480469 201.570312 63.5 200.445312 64.472656 C 199.46875 65.203125 199.007812 65.355469 197.8125 65.386719 C 197.570312 65.398438 197.332031 65.40625 197.085938 65.417969 C 195.820312 65.238281 194.894531 64.769531 194.089844 63.785156 C 193.703125 63.214844 193.339844 62.632812 192.984375 62.039062 C 187.019531 52.617188 176.355469 47.507812 165.820312 45.070312 C 162.910156 44.421875 160.007812 43.90625 157.039062 43.625 C 156.757812 43.59375 156.476562 43.566406 156.1875 43.535156 C 147.410156 42.761719 138.679688 43.855469 130.257812 46.371094 C 129.738281 46.496094 129.738281 46.496094 128.960938 46.496094 C 128.929688 46.792969 128.929688 46.792969 128.902344 47.09375 C 128.5625 49.726562 127.664062 51.820312 125.542969 53.488281 C 123.289062 55 121.261719 55.339844 118.558594 55.117188 C 116.050781 54.5 113.996094 53.027344 112.648438 50.820312 C 111.503906 48.488281 111.304688 46.234375 111.980469 43.746094 C 112.757812 41.472656 114.148438 39.765625 116.285156 38.660156 C 118.1875 37.785156 120.558594 37.375 122.574219 38.109375 C 122.765625 38.195312 122.960938 38.277344 123.160156 38.367188 C 124.648438 38.875 125.835938 38.320312 127.238281 37.800781 C 133.910156 35.34375 141.203125 34.394531 148.28125 34.203125 Z M 148.28125 34.203125 "/>
<path style=" stroke:none;fill-rule:nonzero;fill:rgb(60%,60%,60%);fill-opacity:1;" d="M 124.261719 109.472656 C 125.035156 109.707031 125.738281 109.980469 126.472656 110.320312 C 128.292969 111.109375 130.160156 111.59375 132.078125 112.066406 C 131.269531 116.132812 126.433594 119.933594 123.269531 122.101562 C 113.242188 128.753906 100.691406 129.039062 89.21875 126.753906 C 84.707031 125.804688 80.191406 124.660156 75.855469 123.085938 C 75.554688 122.976562 75.554688 122.976562 75.246094 122.867188 C 74.304688 122.503906 73.894531 122.332031 73.320312 121.46875 C 73.457031 121.386719 73.597656 121.308594 73.738281 121.222656 C 74.390625 120.839844 75.042969 120.453125 75.691406 120.066406 C 75.929688 119.925781 76.164062 119.785156 76.410156 119.640625 C 78 118.683594 79.523438 117.667969 80.945312 116.46875 C 81.730469 115.855469 82.136719 115.722656 83.136719 115.738281 C 84.398438 115.980469 85.625 116.355469 86.855469 116.71875 C 90.808594 117.84375 94.941406 118.714844 99.058594 118.855469 C 99.316406 118.871094 99.570312 118.882812 99.835938 118.898438 C 107.105469 119.109375 114.910156 117.414062 120.585938 112.621094 C 121.445312 111.789062 122.195312 110.871094 122.925781 109.925781 C 123.5 109.453125 123.5 109.453125 124.261719 109.472656 Z M 124.261719 109.472656 "/>
</g>
</svg>
